<?xml version="1.0" standalone="no"?>
<!DOCTYPE svg PUBLIC "-//W3C//DTD SVG 20010904//EN"
 "http://www.w3.org/TR/2001/REC-SVG-20010904/DTD/svg10.dtd">
<svg version="1.0" xmlns="http://www.w3.org/2000/svg"
 width="630.000000pt" height="630.000000pt" viewBox="0 0 630.000000 630.000000"
 preserveAspectRatio="xMidYMid meet">

<g transform="translate(0.000000,630.000000) scale(0.100000,-0.100000)"
fill="#000000" stroke="none">
<path d="M2385 5066 c-58 -15 -229 -100 -330 -165 -212 -136 -344 -255 -526
-473 -20 -24 -82 -112 -139 -195 l-103 -153 -126 -1 c-192 -2 -237 -10 -334
-62 -136 -72 -198 -218 -212 -502 -3 -66 -10 -172 -15 -235 -5 -63 -12 -151
-15 -195 -3 -44 -7 -105 -10 -135 -27 -312 -27 -551 -2 -635 35 -114 107 -186
237 -237 50 -20 77 -22 315 -26 l260 -4 42 -38 c48 -45 102 -62 195 -63 l67 0
76 -89 c277 -322 690 -549 1130 -619 124 -20 487 -17 605 5 117 22 252 59 345
93 112 41 332 158 435 231 112 79 323 285 405 394 l57 78 87 -5 c175 -8 467
-6 513 4 213 48 314 188 333 461 3 36 7 92 10 125 3 33 7 98 10 145 3 47 7
105 10 130 3 25 7 86 10 135 3 50 7 117 10 150 23 318 27 399 22 474 -3 47
-14 110 -23 140 -30 92 -137 188 -247 223 -18 5 -173 15 -346 22 -299 11 -314
12 -330 33 -9 11 -45 63 -81 114 -83 119 -278 321 -394 408 -287 215 -588 335
-946 376 -160 18 -468 -1 -625 -39 -38 -9 -61 -11 -64 -5 -1 6 -17 29 -35 52
-58 77 -166 110 -271 83z m18 -261 c-3 -9 -8 -14 -10 -11 -3 3 -2 9 2 15 9 16
15 13 8 -4z m-54 -43 c5 -10 6 -24 2 -31 -6 -9 -10 -3 -13 18 -5 36 -3 38 11
13z m-74 -30 c10 -7 37 -72 29 -72 -2 0 -11 15 -20 33 -9 17 -22 35 -28 39 -6
5 -7 8 -1 8 6 0 15 -4 20 -8z m-82 -47 c-3 -9 -8 -14 -10 -11 -3 3 -2 9 2 15
9 16 15 13 8 -4z m168 -24 c0 8 5 3 10 -10 14 -35 6 -35 -27 1 -16 18 -19 24
-6 14 17 -15 22 -16 23 -5z m-206 -1 c3 -5 -1 -10 -10 -10 -9 0 -13 5 -10 10
3 6 8 10 10 10 2 0 7 -4 10 -10z m106 -7 c13 -16 12 -17 -3 -4 -10 7 -18 15
-18 17 0 8 8 3 21 -13z m-254 -91 c-10 -10 -14 -22 -10 -27 5 -4 2 -5 -5 -1
-11 6 -10 12 4 27 9 10 19 19 22 19 3 0 -2 -8 -11 -18z m84 1 c13 -16 12 -17
-3 -4 -10 7 -18 15 -18 17 0 8 8 3 21 -13z m100 -40 c13 -16 12 -17 -3 -4 -10
7 -18 15 -18 17 0 8 8 3 21 -13z m114 7 c-3 -5 -12 -10 -18 -10 -7 0 -6 4 3
10 19 12 23 12 15 0z m-58 -35 c-4 -8 -12 -15 -19 -14 -10 0 -10 2 0 6 6 2 12
12 12 21 0 8 3 13 6 9 4 -3 4 -13 1 -22z m-187 -35 c30 -43 18 -37 -16 7 -15
20 -23 33 -16 29 6 -3 21 -20 32 -36z m104 1 c14 -15 15 -21 4 -27 -7 -4 -10
-3 -5 1 4 5 0 17 -10 27 -9 10 -14 18 -11 18 3 0 13 -9 22 -19z m-283 -38 c13
-16 12 -17 -3 -4 -17 13 -22 21 -14 21 2 0 10 -8 17 -17z m124 -3 c10 -11 16
-20 13 -20 -3 0 -13 9 -23 20 -10 11 -16 20 -13 20 3 0 13 -9 23 -20z m-11
-29 c4 -5 0 -8 -6 -7 -19 3 -38 16 -38 27 0 11 35 -5 44 -20z m133 12 c-14
-14 -19 -15 -29 -4 -11 10 -10 11 3 6 10 -4 20 -2 24 4 3 6 9 11 13 11 3 0 -1
-8 -11 -17z m-196 -20 c13 -16 12 -17 -3 -4 -10 7 -18 15 -18 17 0 8 8 3 21
-13z m119 -25 c0 -5 -9 -4 -20 2 -11 6 -18 15 -14 21 6 11 34 -7 34 -23z m-79
-5 c13 -16 12 -17 -3 -4 -17 13 -22 21 -14 21 2 0 10 -8 17 -17z m-175 -15 c4
-6 3 -8 -4 -4 -6 3 -15 -2 -21 -11 -6 -10 -11 -13 -11 -7 0 9 19 34 26 34 2 0
6 -5 10 -12z m219 -9 c11 -17 -1 -21 -15 -4 -8 9 -8 15 -2 15 6 0 14 -5 17
-11z m1543 -19 c10 -17 10 -21 -2 -26 -19 -7 -49 -71 -42 -90 3 -8 1 -14 -4
-14 -18 0 -21 21 -9 57 9 29 9 38 0 41 -8 3 -4 12 11 27 29 29 31 29 46 5z
m71 -43 c5 -13 2 -31 -8 -49 -19 -32 -39 -42 -56 -28 -7 6 -15 6 -22 -1 -6 -6
-3 12 6 41 9 28 23 55 31 60 18 11 40 1 49 -23z m-579 -6 c0 -10 -13 -38 -30
-62 -33 -49 -38 -72 -14 -67 9 2 24 23 33 48 12 33 23 46 39 48 25 4 41 -23
23 -41 -8 -8 -11 -5 -11 14 -1 24 -1 24 -16 4 -10 -13 -14 -32 -10 -53 4 -29
3 -31 -14 -22 -13 7 -21 7 -26 -1 -3 -6 -19 -9 -35 -5 -15 3 -31 1 -34 -4 -3
-6 -17 -10 -30 -10 -30 0 -41 31 -25 70 14 35 39 46 58 27 18 -19 0 -57 -28
-57 -24 0 -27 -18 -5 -26 23 -9 44 13 56 60 21 78 69 132 69 77z m-1182 2
c-10 -2 -26 -2 -35 0 -10 3 -2 5 17 5 19 0 27 -2 18 -5z m1011 -85 c-53 -91
-48 -85 -59 -68 -5 8 -7 31 -5 50 5 33 4 32 -22 -17 -15 -29 -31 -53 -35 -53
-4 0 -8 16 -8 35 0 50 20 135 32 135 6 0 7 -11 4 -26 -21 -84 -18 -90 16 -31
18 31 37 57 41 57 5 0 6 -24 3 -52 -6 -44 -5 -50 5 -33 47 78 63 98 66 88 3
-7 -15 -45 -38 -85z m546 82 c11 -18 -6 -50 -31 -56 -28 -7 -31 -22 -7 -31 10
-4 23 2 35 16 10 13 18 19 18 14 0 -19 -37 -42 -66 -42 -16 1 -39 -2 -50 -6
-30 -9 -38 18 -18 58 17 32 17 32 -4 14 -11 -10 -26 -32 -32 -48 -13 -29 -30
-39 -30 -16 1 6 7 23 15 37 17 31 19 44 3 34 -7 -5 -8 -3 -3 5 4 7 15 11 25 8
9 -2 24 0 33 4 24 14 29 -6 13 -45 -8 -20 -11 -38 -7 -41 12 -7 27 14 35 47
11 45 54 75 71 48z m-1701 -16 c5 -14 4 -15 -9 -4 -17 14 -19 20 -6 20 5 0 12
-7 15 -16z m1503 -62 c-17 -34 -23 -40 -25 -24 -2 11 4 37 13 58 12 29 18 35
25 25 5 -9 0 -30 -13 -59z m-38 44 c15 -18 5 -59 -20 -82 -15 -14 -21 -15 -34
-4 -12 10 -19 10 -27 2 -7 -7 -16 -12 -20 -12 -4 0 1 9 12 20 11 11 20 28 20
37 0 20 28 53 45 53 7 0 18 -6 24 -14z m-1418 -23 c13 -16 12 -17 -3 -4 -10 7
-18 15 -18 17 0 8 8 3 21 -13z m154 -3 c-3 -5 -12 -10 -18 -10 -7 0 -6 4 3 10
19 12 23 12 15 0z m-114 -27 c13 -16 12 -17 -3 -4 -10 7 -18 15 -18 17 0 8 8
3 21 -13z m59 -23 c0 -11 -4 -20 -9 -20 -5 0 -7 9 -4 20 3 11 7 20 9 20 2 0 4
-9 4 -20z m-236 -15 c-4 -8 -8 -15 -10 -15 -2 0 -4 7 -4 15 0 8 4 15 10 15 5
0 7 -7 4 -15z m187 -42 c13 -16 12 -17 -3 -4 -17 13 -22 21 -14 21 2 0 10 -8
17 -17z m-30 -66 c-10 -9 -11 -8 -5 6 3 10 9 15 12 12 3 -3 0 -11 -7 -18z
m-91 -37 c11 -1 11 -3 2 -7 -6 -2 -9 -9 -6 -15 4 -5 -5 -2 -20 7 -31 20 -32
24 -8 20 9 -2 24 -4 32 -5z m-163 -14 c0 -8 -6 -12 -15 -9 -11 5 -11 7 0 14 7
5 13 9 14 9 0 0 1 -6 1 -14z m138 -36 c10 -11 16 -20 13 -20 -3 0 -13 9 -23
20 -10 11 -16 20 -13 20 3 0 13 -9 23 -20z m60 2 c-3 -3 -11 0 -18 7 -9 10 -8
11 6 5 10 -3 15 -9 12 -12z m-45 -69 c-11 -17 -11 -17 -6 0 3 10 6 24 7 30 0
9 2 9 5 0 3 -7 0 -20 -6 -30z m-490 -242 c7 -13 5 -77 -5 -208 -8 -103 -26
-341 -41 -528 -14 -187 -30 -346 -36 -352 -13 -16 -50 -17 -66 -1 -7 7 -12 28
-12 48 -1 80 72 1017 81 1038 11 29 63 31 79 3z m160 -6 c10 -12 4 -123 -28
-546 -26 -332 -45 -536 -53 -545 -6 -8 -22 -14 -34 -14 -50 0 -50 4 -21 403
44 593 53 686 66 702 16 19 54 19 70 0z m175 -1 c12 -13 15 -28 10 -68 -3 -28
-21 -267 -41 -531 -32 -429 -37 -482 -54 -499 -16 -17 -23 -18 -45 -8 -33 15
-33 -5 11 587 26 348 41 497 50 513 17 26 46 29 69 6z m1619 -9 c-9 -14 -18
-25 -21 -25 -5 0 5 18 20 38 17 22 18 13 1 -13z m95 22 c-2 -1 -13 -9 -24 -17
-19 -14 -19 -14 -6 3 7 9 18 17 24 17 6 0 8 -1 6 -3z m-490 -76 c-6 -18 -13
-30 -15 -28 -2 2 1 18 7 36 6 18 13 30 15 28 2 -2 -1 -18 -7 -36z m2181 24
c10 -12 7 -87 -14 -377 -53 -703 -52 -699 -75 -721 -19 -19 -21 -19 -45 -3
-15 9 -26 26 -26 39 0 102 81 1052 91 1063 15 18 53 18 69 -1z m174 -4 c15
-17 15 -40 -9 -357 -41 -548 -55 -711 -61 -728 -9 -22 -51 -31 -70 -15 -20 16
-19 36 30 668 29 381 34 425 51 437 25 19 39 18 59 -5z m180 0 c14 -15 16 -31
11 -77 -3 -33 -21 -269 -40 -526 -20 -257 -38 -474 -41 -482 -8 -21 -39 -29
-64 -16 -27 14 -27 18 18 602 27 342 42 491 51 502 18 21 44 20 65 -3z m-2631
-26 c-9 -19 -18 -33 -21 -31 -4 5 26 66 33 66 3 0 -3 -16 -12 -35z m-72 2
c-10 -9 -11 -8 -5 6 3 10 9 15 12 12 3 -3 0 -11 -7 -18z m237 9 c-7 -8 -15
-12 -17 -11 -5 6 10 25 20 25 5 0 4 -6 -3 -14z m1785 -163 c-7 -2 -19 -2 -25
0 -7 3 -2 5 12 5 14 0 19 -2 13 -5z m-86 -9 c-3 -3 -12 -4 -19 -1 -8 3 -5 6 6
6 11 1 17 -2 13 -5z m157 -15 c41 -33 56 -71 54 -141 l-1 -63 -6 70 c-7 76
-27 117 -70 140 -14 8 -21 14 -15 15 6 0 23 -9 38 -21z m-251 4 c-7 -2 -19 -2
-25 0 -7 3 -2 5 12 5 14 0 19 -2 13 -5z m-80 -10 c-7 -2 -21 -2 -30 0 -10 3
-4 5 12 5 17 0 24 -2 18 -5z m-85 -10 c-10 -2 -26 -2 -35 0 -10 3 -2 5 17 5
19 0 27 -2 18 -5z m-178 -30 c0 -12 -3 -14 -8 -7 -4 7 -16 14 -27 17 -15 4
-14 5 8 6 20 1 27 -4 27 -16z m-92 0 c-10 -2 -26 -2 -35 0 -10 3 -2 5 17 5 19
0 27 -2 18 -5z m209 -45 c-2 -13 -4 -5 -4 17 -1 22 1 32 4 23 2 -10 2 -28 0
-40z m-299 35 c-10 -2 -26 -2 -35 0 -10 3 -2 5 17 5 19 0 27 -2 18 -5z m-90
-10 c-10 -2 -26 -2 -35 0 -10 3 -2 5 17 5 19 0 27 -2 18 -5z m-85 -10 c-7 -2
-21 -2 -30 0 -10 3 -4 5 12 5 17 0 24 -2 18 -5z m710 -10 c-7 -2 -19 -2 -25 0
-7 3 -2 5 12 5 14 0 19 -2 13 -5z m97 -13 c14 -14 20 -32 18 -62 l-1 -43 -4
42 c-3 31 -11 48 -30 63 -14 11 -21 20 -14 20 6 0 20 -9 31 -20z m-1033 -42
c-2 -13 -4 -5 -4 17 -1 22 1 32 4 23 2 -10 2 -28 0 -40z m-40 36 c-3 -3 -12
-4 -19 -1 -8 3 -5 6 6 6 11 1 17 -2 13 -5z m160 -66 c-3 -7 -5 -2 -5 12 0 14
2 19 5 13 2 -7 2 -19 0 -25z m-663 -32 c28 -24 130 -114 226 -201 172 -154
175 -156 181 -128 l7 28 1 -31 c0 -17 -2 -33 -5 -37 -3 -3 -74 56 -158 131
-83 76 -188 170 -234 210 -45 39 -79 72 -76 72 4 0 30 -20 58 -44z m1233 12
c-3 -7 -5 -2 -5 12 0 14 2 19 5 13 2 -7 2 -19 0 -25z m-1537 -8 c0 -5 -7 -7
-15 -4 -8 4 -15 8 -15 10 0 2 7 4 15 4 8 0 15 -4 15 -10z m-87 -7 c-7 -2 -19
-2 -25 0 -7 3 -2 5 12 5 14 0 19 -2 13 -5z m924 -55 c-2 -13 -4 -3 -4 22 0 25
2 35 4 23 2 -13 2 -33 0 -45z m-1003 44 c-6 -4 -14 -14 -17 -22 -4 -10 -6 -8
-6 8 -1 15 5 22 17 22 10 0 13 -3 6 -8z m373 -39 c-3 -10 -5 -2 -5 17 0 19 2
27 5 18 2 -10 2 -26 0 -35z m540 0 c-3 -10 -5 -4 -5 12 0 17 2 24 5 18 2 -7 2
-21 0 -30z m210 -20 c-3 -10 -5 -2 -5 17 0 19 2 27 5 18 2 -10 2 -26 0 -35z
m180 10 c-3 -10 -5 -4 -5 12 0 17 2 24 5 18 2 -7 2 -21 0 -30z m390 -30 c-3
-10 -5 -2 -5 17 0 19 2 27 5 18 2 -10 2 -26 0 -35z m533 39 c0 -5 -7 -17 -15
-28 -14 -18 -14 -17 -4 9 12 27 19 34 19 19z m-2677 -9 c-7 -2 -21 -2 -30 0
-10 3 -4 5 12 5 17 0 24 -2 18 -5z m158 -32 c22 -21 39 -47 38 -57 0 -14 -2
-15 -6 -4 -13 34 -48 73 -77 86 -21 9 -25 13 -12 14 10 0 36 -17 57 -39z
m2166 17 c-3 -8 -6 -5 -6 6 -1 11 2 17 5 13 3 -3 4 -12 1 -19z m-2414 5 c-7
-2 -19 -2 -25 0 -7 3 -2 5 12 5 14 0 19 -2 13 -5z m-85 -10 c-10 -2 -26 -2
-35 0 -10 3 -2 5 17 5 19 0 27 -2 18 -5z m779 -30 c-3 -10 -5 -4 -5 12 0 17 2
24 5 18 2 -7 2 -21 0 -30z m-874 20 c-7 -2 -19 -2 -25 0 -7 3 -2 5 12 5 14 0
19 -2 13 -5z m694 -40 c-3 -10 -5 -2 -5 17 0 19 2 27 5 18 2 -10 2 -26 0 -35z
m390 -10 c-3 -10 -5 -4 -5 12 0 17 2 24 5 18 2 -7 2 -21 0 -30z m540 5 c-3 -7
-5 -2 -5 12 0 14 2 19 5 13 2 -7 2 -19 0 -25z m90 -5 c-3 -10 -5 -4 -5 12 0
17 2 24 5 18 2 -7 2 -21 0 -30z m1020 12 c-15 -14 -33 -25 -39 -25 -6 0 4 11
23 24 44 32 51 32 16 1z m183 22 c0 -2 -12 -14 -27 -28 l-28 -24 24 28 c23 25
31 32 31 24z m-1083 -59 c-3 -7 -5 -2 -5 12 0 14 2 19 5 13 2 -7 2 -19 0 -25z
m570 -25 c-3 -10 -5 -4 -5 12 0 17 2 24 5 18 2 -7 2 -21 0 -30z m447 22 c-4
-9 -18 -15 -38 -14 l-31 0 35 13 c19 8 36 14 37 15 1 0 0 -6 -3 -14z m-2917
-27 c-3 -7 -5 -2 -5 12 0 14 2 19 5 13 2 -7 2 -19 0 -25z m180 0 c-3 -7 -5 -2
-5 12 0 14 2 19 5 13 2 -7 2 -19 0 -25z m2803 2 c16 -16 20 -32 18 -72 l-2
-53 -3 50 c-5 53 -15 72 -48 85 -17 7 -17 9 -2 9 9 1 26 -8 37 -19z m-2233
-37 c-3 -10 -5 -4 -5 12 0 17 2 24 5 18 2 -7 2 -21 0 -30z m390 -30 c-3 -10
-5 -4 -5 12 0 17 2 24 5 18 2 -7 2 -21 0 -30z m630 0 c-3 -10 -5 -4 -5 12 0
17 2 24 5 18 2 -7 2 -21 0 -30z m120 -20 c-3 -10 -5 -2 -5 17 0 19 2 27 5 18
2 -10 2 -26 0 -35z m356 -14 c-5 -5 -7 7 -4 29 5 34 6 35 9 8 2 -16 0 -32 -5
-37z m214 -11 c-2 -13 -4 -3 -4 22 0 25 2 35 4 23 2 -13 2 -33 0 -45z m331 46
c12 -8 22 -22 22 -31 0 -11 -6 -8 -20 10 -16 20 -32 27 -68 30 l-47 3 45 2
c28 1 54 -4 68 -14z m-2261 -41 c-3 -10 -5 -2 -5 17 0 19 2 27 5 18 2 -10 2
-26 0 -35z m2115 17 c-2 -16 -6 -30 -8 -30 -2 0 -4 14 -4 30 0 17 4 30 8 30 5
0 7 -13 4 -30z m-2655 -17 c-3 -10 -5 -4 -5 12 0 17 2 24 5 18 2 -7 2 -21 0
-30z m180 5 c-3 -7 -5 -2 -5 12 0 14 2 19 5 13 2 -7 2 -19 0 -25z m180 -10
c-3 -7 -5 -2 -5 12 0 14 2 19 5 13 2 -7 2 -19 0 -25z m570 -5 c-3 -10 -5 -4
-5 12 0 17 2 24 5 18 2 -7 2 -21 0 -30z m-180 -20 c-3 -10 -5 -4 -5 12 0 17 2
24 5 18 2 -7 2 -21 0 -30z m1020 -25 c-2 -13 -4 -5 -4 17 -1 22 1 32 4 23 2
-10 2 -28 0 -40z m441 45 c-10 -2 -28 -2 -40 0 -13 2 -5 4 17 4 22 1 32 -1 23
-4z m-1071 -50 c-3 -10 -5 -2 -5 17 0 19 2 27 5 18 2 -10 2 -26 0 -35z m750
-20 c-2 -16 -4 -5 -4 22 0 28 2 40 4 28 2 -13 2 -35 0 -50z m221 60 c-35 -4
-38 -7 -39 -36 -1 -25 -3 -27 -6 -9 -8 40 3 52 44 50 l38 -1 -37 -4z m-771
-94 c54 -48 107 -97 118 -110 l20 -24 -25 21 c-14 11 -69 59 -122 108 -77 70
-97 83 -101 69 -4 -14 -5 -12 -6 5 0 13 3 22 8 20 5 -1 54 -42 108 -89z m1120
29 c-3 -7 -5 -2 -5 12 0 14 2 19 5 13 2 -7 2 -19 0 -25z m-2470 -10 c-3 -7 -5
-2 -5 12 0 14 2 19 5 13 2 -7 2 -19 0 -25z m540 10 c-3 -8 -6 -5 -6 6 -1 11 2
17 5 13 3 -3 4 -12 1 -19z m390 -30 c-3 -8 -6 -5 -6 6 -1 11 2 17 5 13 3 -3 4
-12 1 -19z m-180 -35 c-3 -10 -5 -2 -5 17 0 19 2 27 5 18 2 -10 2 -26 0 -35z
m390 -15 c-2 -13 -4 -3 -4 22 0 25 2 35 4 23 2 -13 2 -33 0 -45z m630 25 c-3
-10 -5 -4 -5 12 0 17 2 24 5 18 2 -7 2 -21 0 -30z m-540 -10 c-3 -10 -5 -4 -5
12 0 17 2 24 5 18 2 -7 2 -21 0 -30z m-700 -55 c-2 -13 -4 -5 -4 17 -1 22 1
32 4 23 2 -10 2 -28 0 -40z m-540 -15 c-3 -10 -5 -2 -5 17 0 19 2 27 5 18 2
-10 2 -26 0 -35z m180 0 c-3 -10 -5 -2 -5 17 0 19 2 27 5 18 2 -10 2 -26 0
-35z m180 -5 c-2 -13 -4 -5 -4 17 -1 22 1 32 4 23 2 -10 2 -28 0 -40z m570 5
c-3 -10 -5 -2 -5 17 0 19 2 27 5 18 2 -10 2 -26 0 -35z m-180 -15 c-2 -13 -4
-5 -4 17 -1 22 1 32 4 23 2 -10 2 -28 0 -40z m390 -5 c-3 -10 -5 -4 -5 12 0
17 2 24 5 18 2 -7 2 -21 0 -30z m-610 -50 c-3 -10 -5 -2 -5 17 0 19 2 27 5 18
2 -10 2 -26 0 -35z m-540 -25 c-2 -13 -4 -3 -4 22 0 25 2 35 4 23 2 -13 2 -33
0 -45z m180 10 c-2 -13 -4 -5 -4 17 -1 22 1 32 4 23 2 -10 2 -28 0 -40z m180
-5 c-3 -10 -5 -2 -5 17 0 19 2 27 5 18 2 -10 2 -26 0 -35z m2420 -200 c2 -6
-6 -21 -18 -32 l-23 -21 22 0 c29 0 39 -20 13 -27 -11 -3 -19 -9 -16 -13 13
-21 -19 -20 -40 0 -22 21 -26 48 -5 35 4 -3 11 5 15 18 4 12 8 25 10 30 1 4 3
12 4 18 1 14 33 8 38 -8z m-59 -126 c3 -24 -2 -30 -27 -40 -17 -6 -31 -18 -31
-27 0 -38 -52 -54 -69 -22 -13 24 12 62 40 62 11 0 18 4 15 8 -3 5 2 19 10 31
22 31 58 25 62 -12z m-1299 -34 c-1 -33 -2 -35 -8 -13 -4 14 -6 31 -3 38 8 22
12 13 11 -25z m268 5 c-3 -8 -6 -5 -6 6 -1 11 2 17 5 13 3 -3 4 -12 1 -19z
m-70 -10 c-3 -8 -6 -5 -6 6 -1 11 2 17 5 13 3 -3 4 -12 1 -19z m27 -27 c-4
-23 -9 -40 -11 -37 -3 3 -2 23 2 46 4 23 9 39 11 37 3 -2 2 -23 -2 -46z m73
17 c-3 -7 -5 -2 -5 12 0 14 2 19 5 13 2 -7 2 -19 0 -25z m65 3 c2 -17 1 -28
-4 -25 -8 5 -12 54 -4 54 2 0 6 -13 8 -29z m-412 11 c0 -5 -7 -17 -15 -28 -14
-18 -14 -17 -4 9 12 27 19 34 19 19z m170 -17 c0 -18 -4 -23 -16 -18 -9 3 -20
0 -25 -8 -7 -11 -9 -9 -9 8 0 16 5 20 20 16 14 -4 20 0 20 11 0 9 2 16 5 16 3
0 5 -11 5 -25z m-150 -4 c-14 -27 -13 -34 5 -28 19 8 26 -5 14 -23 -6 -10 -9
-11 -9 -2 0 6 -7 12 -15 12 -8 0 -15 5 -15 11 0 13 19 49 26 49 2 0 0 -9 -6
-19z m177 -13 c-3 -7 -5 -2 -5 12 0 14 2 19 5 13 2 -7 2 -19 0 -25z m110 -10
c-3 -7 -5 -2 -5 12 0 14 2 19 5 13 2 -7 2 -19 0 -25z m66 7 c-3 -9 -8 -14 -10
-11 -3 3 -2 9 2 15 9 16 15 13 8 -4z m-141 -37 c-6 -6 -7 0 -4 19 5 21 7 23
10 9 2 -10 0 -22 -6 -28z m118 4 c0 -7 -4 -10 -10 -7 -5 3 -10 16 -10 28 0 18
2 19 10 7 5 -8 10 -21 10 -28z m-387 3 c-3 -9 -8 -14 -10 -11 -3 3 -2 9 2 15
9 16 15 13 8 -4z m194 -7 c-3 -8 -6 -5 -6 6 -1 11 2 17 5 13 3 -3 4 -12 1 -19z
m30 0 c-3 -8 -6 -5 -6 6 -1 11 2 17 5 13 3 -3 4 -12 1 -19z m240 0 c-3 -8 -6
-5 -6 6 -1 11 2 17 5 13 3 -3 4 -12 1 -19z m796 4 c17 -18 14 -28 -16 -51 -15
-12 -20 -11 -36 3 -25 23 -39 2 -16 -24 12 -13 13 -20 4 -26 -7 -4 -18 0 -25
11 -11 15 -16 16 -30 5 -14 -13 -14 -15 3 -28 17 -13 16 -15 -17 -43 -19 -17
-43 -28 -52 -26 -10 3 -15 0 -12 -8 10 -25 -14 -25 -30 0 -20 31 -21 49 -1 41
9 -3 15 0 15 9 0 8 5 15 10 15 6 0 10 -7 10 -15 0 -8 2 -15 4 -15 2 0 13 -3
23 -7 17 -7 17 -6 -1 22 l-19 29 29 24 c16 14 49 42 74 63 50 44 60 46 83 21z
m-926 -14 c-3 -8 -6 -5 -6 6 -1 11 2 17 5 13 3 -3 4 -12 1 -19z m-1131 -35
c-3 -7 1 -13 9 -13 22 0 48 -42 32 -53 -8 -6 -6 -7 7 -3 22 8 66 -18 66 -39 0
-8 6 -12 13 -9 8 3 25 -4 38 -15 20 -16 22 -23 13 -38 -16 -26 -57 -23 -69 5
-6 12 -19 22 -30 22 -25 0 -45 18 -45 41 0 12 -6 16 -19 12 -22 -6 -57 39 -46
57 4 6 1 17 -5 25 -18 21 6 51 27 34 8 -7 12 -18 9 -26z m807 10 c-7 -2 -19
-2 -25 0 -7 3 -2 5 12 5 14 0 19 -2 13 -5z m22 -83 c-25 -10 -41 -28 -48 -55
-4 -18 -5 -18 -6 3 -1 26 32 62 57 61 14 0 14 -2 -3 -9z m95 -20 c-11 -11 -20
-30 -21 -42 0 -13 -3 -17 -6 -10 -4 10 -10 9 -25 -5 -20 -18 -21 -18 -10 3 15
29 1 40 -15 12 -9 -17 -12 -19 -13 -7 0 24 28 45 42 31 8 -8 16 -4 30 14 11
13 24 24 29 24 5 0 0 -9 -11 -20z m168 9 c-10 -5 -18 -17 -18 -26 0 -13 2 -14
17 -2 13 11 17 11 21 1 3 -10 7 -10 18 -1 8 6 14 8 14 3 0 -12 -11 -26 -32
-42 -14 -11 -16 -11 -11 7 3 12 1 21 -6 21 -6 0 -12 -8 -12 -17 -1 -15 -2 -15
-6 1 -5 18 -6 18 -19 -5 -18 -33 -18 -5 1 31 11 22 12 30 2 33 -6 3 2 6 18 6
25 0 27 -1 13 -10z m-128 -9 c0 -5 -5 -10 -11 -10 -5 0 -7 5 -4 10 3 6 8 10
11 10 2 0 4 -4 4 -10z m260 -37 c-11 -17 -11 -17 -6 0 3 10 7 26 7 35 1 15 2
15 6 0 2 -10 -1 -25 -7 -35z m-11 28 c-1 -15 -18 -45 -18 -34 -1 6 -3 18 -6
26 -4 8 0 14 10 14 8 0 15 -3 14 -6z m-212 -17 c3 -8 -1 -23 -10 -31 -15 -15
-16 -14 -11 8 5 23 5 23 -10 5 -18 -22 -21 -14 -6 15 13 23 28 25 37 3z m153
-21 c-11 -17 -11 -17 -6 0 3 10 6 24 7 30 0 9 2 9 5 0 3 -7 0 -20 -6 -30z
m650 11 c0 -4 -8 -13 -17 -20 -24 -17 -7 -31 18 -15 12 7 24 9 27 6 11 -11
-37 -45 -53 -38 -9 3 -15 -1 -15 -11 0 -19 -36 -39 -59 -33 -21 5 -55 -18 -47
-32 15 -24 -14 -18 -29 6 -17 26 -17 27 5 45 13 10 28 17 33 15 6 -2 20 7 33
20 13 13 29 20 38 17 10 -4 16 -1 16 8 0 8 5 19 12 26 13 13 38 16 38 6z
m-1572 -44 c26 -25 27 -33 6 -54 -14 -14 -18 -14 -45 -1 l-30 16 18 29 c21 36
23 36 51 10z m132 -81 c0 -6 6 -9 14 -6 8 3 26 -3 39 -14 14 -10 37 -19 51
-19 14 0 31 -9 39 -21 10 -13 16 -16 19 -8 3 9 11 9 33 -2 35 -17 40 -29 22
-53 -11 -14 -21 -17 -46 -11 -27 6 -31 10 -25 28 5 18 4 20 -7 10 -19 -19 -47
-16 -66 6 -9 11 -22 17 -29 14 -7 -2 -22 1 -34 7 -16 9 -21 18 -17 36 2 14 0
27 -4 30 -5 3 -9 0 -9 -7 0 -6 -8 -9 -20 -6 -10 3 -21 0 -23 -7 -2 -6 -8 -8
-12 -4 -4 4 -2 21 5 37 12 30 13 30 41 15 16 -8 29 -19 29 -25z m1208 -21 c20
-20 13 -47 -17 -62 -28 -15 -29 -15 -41 15 -7 16 -11 31 -9 33 8 7 44 25 50
26 3 0 10 -5 17 -12z m-78 -43 c0 -14 5 -25 10 -25 21 0 9 -19 -19 -28 -28
-10 -30 -8 -40 20 -6 17 -10 32 -9 33 11 8 44 24 51 25 4 0 7 -11 7 -25z m-74
-30 c-5 -18 -2 -25 9 -25 23 0 18 -17 -7 -24 -43 -11 -48 -8 -38 20 9 22 8 25
-4 21 -9 -4 -18 -2 -21 4 -6 9 28 27 54 28 9 1 11 -6 7 -24z m-658 -10 c9 -7
-25 -45 -39 -45 -9 0 -20 -8 -23 -17 -12 -30 -28 2 -21 40 7 34 8 35 43 30 21
-3 38 -7 40 -8z m593 -58 c-13 -13 -35 40 -25 62 5 12 10 8 21 -18 10 -23 11
-37 4 -44z m-44 38 c-4 -8 -2 -17 4 -21 16 -9 -10 -34 -36 -34 -26 0 -41 36
-23 57 15 19 62 17 55 -2z m-496 -5 c43 -24 9 -82 -36 -62 -29 13 -33 46 -7
61 21 13 20 13 43 1z m-201 -10 c0 -5 -4 -10 -10 -10 -5 0 -10 5 -10 10 0 6 5
10 10 10 6 0 10 -4 10 -10z m277 4 c18 -5 22 -13 21 -40 -1 -39 -4 -40 -30
-17 -11 9 -18 11 -18 5 0 -7 -4 -12 -10 -12 -5 0 -10 16 -10 35 0 36 6 40 47
29z m300 -26 c-16 -46 -15 -46 -42 -13 l-24 30 -1 -32 c0 -36 -15 -43 -36 -15
-13 16 -13 16 -14 0 0 -15 -9 -17 -55 -15 -45 2 -54 5 -49 17 3 8 9 23 11 33
8 27 28 20 46 -15 l16 -33 0 33 c1 36 15 41 44 15 20 -17 20 -17 13 1 -6 17
-2 18 34 13 22 -3 40 -1 40 4 0 5 6 9 14 9 12 0 12 -6 3 -32z"/>
<path d="M3577 4243 c-4 -3 -7 -18 -7 -32 l1 -26 19 24 c11 12 17 27 14 32 -6
11 -18 12 -27 2z"/>
<path d="M3022 4235 c-17 -37 -14 -45 4 -12 9 16 14 31 11 33 -2 2 -9 -7 -15
-21z"/>
<path d="M2930 4196 c-6 -9 -10 -21 -8 -28 3 -8 9 -4 17 10 15 28 9 39 -9 18z"/>
<path d="M3392 4248 c-6 -6 -12 -19 -12 -27 0 -13 2 -13 16 1 9 9 15 21 13 27
-3 9 -8 8 -17 -1z"/>
<path d="M3158 4208 c-20 -16 -32 -54 -20 -62 13 -8 30 14 36 47 5 31 5 31
-16 15z"/>
<path d="M4346 2243 c-11 -11 -6 -23 9 -23 8 0 15 4 15 9 0 13 -16 22 -24 14z"/>
<path d="M4287 2183 c-12 -11 -8 -23 8 -23 8 0 15 7 15 15 0 16 -12 20 -23 8z"/>
<path d="M2200 2042 c0 -5 7 -9 15 -9 8 0 12 4 9 9 -3 4 -9 8 -15 8 -5 0 -9
-4 -9 -8z"/>
<path d="M2262 1978 c6 -18 28 -21 28 -4 0 9 -7 16 -16 16 -9 0 -14 -5 -12
-12z"/>
<path d="M2332 1928 c6 -18 28 -21 28 -4 0 9 -7 16 -16 16 -9 0 -14 -5 -12
-12z"/>
<path d="M3917 1884 c-8 -8 1 -24 14 -24 5 0 9 7 9 15 0 15 -12 20 -23 9z"/>
<path d="M2410 1885 c0 -8 5 -15 10 -15 6 0 10 7 10 15 0 8 -4 15 -10 15 -5 0
-10 -7 -10 -15z"/>
<path d="M2582 1788 c6 -18 28 -21 28 -4 0 9 -7 16 -16 16 -9 0 -14 -5 -12
-12z"/>
<path d="M2662 1758 c6 -18 28 -21 28 -4 0 9 -7 16 -16 16 -9 0 -14 -5 -12
-12z"/>
<path d="M2747 1734 c-8 -8 1 -24 14 -24 5 0 9 7 9 15 0 15 -12 20 -23 9z"/>
<path d="M3742 1779 c2 -6 8 -10 13 -10 5 0 11 4 13 10 2 6 -4 11 -13 11 -9 0
-15 -5 -13 -11z"/>
<path d="M2985 1670 c3 -5 13 -10 21 -10 8 0 14 5 14 10 0 6 -9 10 -21 10 -11
0 -17 -4 -14 -10z"/>
</g>
</svg>
